# xmcd
#
# Track frame offsets: 
#        150
#        12196
#        23030
#        33912
#        45671
#        56620
#        67915
#        81690
#        92755
#        102198
#        113520
#        123553
#        135597
#        148824
#        157509
#        165623
#        178167
#        190724
#        203208
#        215702
#
# Disc length: 2996 seconds
#
# Revision: 3
# Processed by: cddbd v1.5.2PL0 Copyright (c) Steve Scherf et al.
# Submitted via: ExactAudioCopy v1.3
#
DISCID=0f0bb214
DTITLE=Porter Wagoner and Dolly Parton - Two Of A Kind
DYEAR=1900
DGENRE=Country
TTITLE0=Two Of A Kind
TTITLE1=You and Me-Her and Him
TTITLE2=Just Someone I Used To Know
TTITLE3=Fight and Scratch
TTITLE4=Something To Reach For
TTITLE5=Holding On To Nothin'
TTITLE6=Daddy Was An Old Time Preacher Man
TTITLE7=The  Power Of Love
TTITLE8=In Each Love Some Rain Must Fall
TTITLE9=We Found It
TTITLE10=Better Move It On Home
TTITLE11=Before Our Weakness Gets To Strong
TTITLE12=The Right Combination
TTITLE13=We'll Get Ahead Someday
TTITLE14=Burning The Midnight Oil
TTITLE15=Say Forever You'll Be Mine
TTITLE16=Please Don't Stop Loving Me
TTITLE17=Jeannie's Afraid Of The Dark
TTITLE18=I've Been Married Just As Long As You Have
TTITLE19=The House Where Love Lives
EXTD=
EXTT0=
EXTT1=
EXTT2=
EXTT3=
EXTT4=
EXTT5=
EXTT6=
EXTT7=
EXTT8=
EXTT9=
EXTT10=
EXTT11=
EXTT12=
EXTT13=
EXTT14=
EXTT15=
EXTT16=
EXTT17=
EXTT18=
EXTT19=
PLAYORDER=
